<mxfile host="app.diagrams.net" modified="2021-03-19T20:37:02.218Z" agent="5.0 (Windows NT 10.0; Win64; x64) AppleWebKit/537.36 (KHTML, like Gecko) Chrome/89.0.4389.90 Safari/537.36" etag="TaF4QqZk2zByuV9XuhrX" version="14.4.9" type="github" pages="3">
  <diagram id="BGwZbRaYp8CcoHQ7zAZs" name="Context-Diagram">
    <mxGraphModel dx="1038" dy="580" grid="1" gridSize="10" guides="1" tooltips="1" connect="1" arrows="1" fold="1" page="1" pageScale="1" pageWidth="827" pageHeight="1169" math="0" shadow="0">
      <root>
        <mxCell id="0" />
        <mxCell id="1" parent="0" />
      </root>
    </mxGraphModel>
  </diagram>
  <diagram id="qyFDxf01pw8PAFPkZi5j" name="Container-Diagram">
    <mxGraphModel dx="1038" dy="580" grid="1" gridSize="10" guides="1" tooltips="1" connect="1" arrows="1" fold="1" page="1" pageScale="1" pageWidth="827" pageHeight="1169" math="0" shadow="0">
      <root>
        <mxCell id="cad0vDTCwgcv86uLsCEM-0" />
        <mxCell id="cad0vDTCwgcv86uLsCEM-1" parent="cad0vDTCwgcv86uLsCEM-0" />
      </root>
    </mxGraphModel>
  </diagram>
  <diagram id="pZZpkw7HPGUcfBDN23sU" name="Component-Diagram">
    <mxGraphModel dx="1038" dy="580" grid="1" gridSize="10" guides="1" tooltips="1" connect="1" arrows="1" fold="1" page="1" pageScale="1" pageWidth="827" pageHeight="1169" math="0" shadow="0">
      <root>
        <mxCell id="Lu1Hwj6ybN4QLjdbewPl-0" />
        <mxCell id="Lu1Hwj6ybN4QLjdbewPl-1" parent="Lu1Hwj6ybN4QLjdbewPl-0" />
      </root>
    </mxGraphModel>
  </diagram>
</mxfile>
